<svg width="888" height="878" viewBox="0 0 888 878" fill="none" xmlns="http://www.w3.org/2000/svg">
<path d="M363.137 25.7983C426.218 21.8818 517.041 48.9905 568.163 85.39C665.831 154.928 719.489 249.227 741.805 364.519C709.783 363.704 665.052 362.945 633.582 364.425C626.512 335.495 619.725 308.443 608.219 280.548C510.595 43.8175 232.094 44.2949 136.616 283.214C90.8387 397.765 97.919 516.541 148.195 631.802C152.449 641.644 156.977 651.365 161.773 660.953C198.854 734.612 277.685 820.564 356.138 850.765C390.157 863.857 414.316 867.178 446.281 877.778C418.255 879.007 396.604 874.929 369.159 870.637C168.787 839.302 13.7023 671.165 0.818383 466.971C-6.23356 351.577 32.5061 238.055 108.632 151.026C177.675 72.9802 259.361 32.2859 363.137 25.7983Z" fill="black"/>
<path d="M395.089 136.201C395.103 136.331 394.309 139.145 394.182 139.223C380.707 147.872 368.266 157.529 356.421 167.829C309.886 208.281 279.854 272.2 266.613 331.878C242.695 439.685 253.921 553.526 313.891 648.138C348.401 702.585 406.948 755.528 471.757 769.268C528.717 781.429 588.185 770.105 636.699 737.86C701.466 695.476 756.527 617.345 772.227 541.654C808.004 540.521 843.809 541.57 879.756 540.596C862.951 601.003 860.089 618.712 825.63 676.135C823.391 679.907 821.039 683.599 818.545 687.204C703.606 856.328 496.284 904.235 322.019 791.568C229.003 731.424 173.382 628.388 152.423 521.768C123.799 376.15 177.568 175.187 344.321 143.743C361.012 140.541 378.071 139.336 395.089 136.201Z" fill="#E50F0C"/>
<path d="M465.962 0C606.208 6.3487 747.346 80.0882 823.406 199.674C851.29 242.86 871.665 290.441 883.681 340.412C884.885 345.306 888.782 358.675 887.861 362.775L884.644 363.475C849.944 363.329 814.451 364.593 779.51 364.729C753.467 202.488 652.073 56.9244 491.594 9.07684C483.22 6.57816 470.752 5.44073 463.497 1.82586L465.962 0Z" fill="#E50F0C"/>
<path d="M629.457 543.46C663.279 543.463 698.461 544.875 731.645 544.647C728.726 553.068 725.637 561.434 722.406 569.739C694.167 640.853 657.144 690.775 585.675 721.402C553.001 734.925 531.762 737.267 496.381 737.519C521.73 722.367 529.126 719.595 550.748 697.772C596.202 651.901 612.525 604.416 629.457 543.46Z" fill="black"/>
</svg>
