<svg width="5004" height="878" viewBox="0 0 5004 878" fill="none" xmlns="http://www.w3.org/2000/svg">
<path d="M363.137 25.7983C426.218 21.8818 517.041 48.9905 568.163 85.39C665.831 154.928 719.489 249.227 741.805 364.519C709.783 363.704 665.052 362.945 633.582 364.425C626.512 335.495 619.725 308.443 608.219 280.548C510.595 43.8175 232.094 44.2949 136.616 283.214C90.8387 397.765 97.919 516.541 148.195 631.802C152.449 641.644 156.977 651.365 161.773 660.953C198.854 734.612 277.685 820.564 356.138 850.765C390.157 863.857 414.316 867.178 446.281 877.778C418.255 879.007 396.604 874.929 369.159 870.637C168.787 839.302 13.7023 671.165 0.818383 466.971C-6.23356 351.577 32.5061 238.055 108.632 151.026C177.675 72.9802 259.361 32.2859 363.137 25.7983Z" fill="black"/>
<path d="M395.089 136.201C395.103 136.331 394.309 139.145 394.182 139.223C380.707 147.872 368.266 157.529 356.421 167.829C309.886 208.281 279.854 272.2 266.613 331.878C242.695 439.685 253.921 553.526 313.891 648.138C348.401 702.585 406.948 755.528 471.757 769.268C528.717 781.429 588.185 770.105 636.699 737.86C701.466 695.476 756.527 617.345 772.227 541.654C808.004 540.521 843.809 541.57 879.756 540.596C862.951 601.003 860.089 618.712 825.63 676.135C823.391 679.907 821.039 683.599 818.545 687.204C703.606 856.328 496.284 904.235 322.019 791.568C229.003 731.424 173.382 628.388 152.423 521.768C123.799 376.15 177.568 175.187 344.321 143.743C361.012 140.541 378.071 139.336 395.089 136.201Z" fill="#E50F0C"/>
<path d="M465.962 0C606.208 6.3487 747.346 80.0882 823.406 199.674C851.29 242.86 871.665 290.441 883.681 340.412C884.885 345.306 888.782 358.675 887.861 362.775L884.644 363.475C849.944 363.329 814.451 364.593 779.51 364.729C753.467 202.488 652.073 56.9244 491.594 9.07684C483.22 6.57816 470.752 5.44073 463.497 1.82586L465.962 0Z" fill="#E50F0C"/>
<path d="M629.457 543.46C663.279 543.463 698.461 544.875 731.645 544.647C728.726 553.068 725.637 561.434 722.406 569.739C694.167 640.853 657.144 690.775 585.675 721.402C553.001 734.925 531.762 737.267 496.381 737.519C521.73 722.367 529.126 719.595 550.748 697.772C596.202 651.901 612.525 604.416 629.457 543.46Z" fill="black"/>
<path d="M4841.27 105.516L4957.57 302.526V105.516H5003.86V379.273H4951.64L4834.94 181.867V379.273H4788.65V105.516H4841.27Z" fill="black"/>
<path d="M4757.03 242.79C4757.03 263.889 4754.26 283.274 4748.72 300.944C4743.18 318.35 4735.01 333.383 4724.19 346.042C4713.64 358.702 4700.46 368.592 4684.63 375.713C4669.07 382.57 4651.27 385.998 4631.23 385.998C4611.18 385.998 4593.38 382.57 4577.82 375.713C4562.52 368.592 4549.47 358.702 4538.66 346.042C4528.11 333.383 4520.06 318.35 4514.52 300.944C4508.99 283.274 4506.22 263.889 4506.22 242.79C4506.22 221.692 4508.99 202.439 4514.52 185.032C4520.06 167.362 4528.11 152.197 4538.66 139.538C4549.47 126.879 4562.52 116.989 4577.82 109.868C4593.38 102.747 4611.18 99.1868 4631.23 99.1868C4651.27 99.1868 4669.07 102.747 4684.63 109.868C4700.46 116.989 4713.64 126.879 4724.19 139.538C4735.01 152.197 4743.18 167.362 4748.72 185.032C4754.26 202.439 4757.03 221.692 4757.03 242.79ZM4710.74 242.79C4710.74 226.439 4708.63 211.801 4704.41 198.878C4700.46 185.955 4694.92 175.142 4687.8 166.439C4680.68 157.472 4672.24 150.615 4662.48 145.868C4652.72 141.121 4642.3 138.747 4631.23 138.747C4620.15 138.747 4609.73 141.121 4599.97 145.868C4590.48 150.615 4582.17 157.472 4575.05 166.439C4568.19 175.142 4562.66 185.955 4558.44 198.878C4554.48 211.801 4552.5 226.439 4552.5 242.79C4552.5 259.142 4554.48 273.779 4558.44 286.702C4562.66 299.361 4568.19 310.175 4575.05 319.142C4582.17 328.108 4590.48 334.966 4599.97 339.713C4609.73 344.46 4620.15 346.834 4631.23 346.834C4642.3 346.834 4652.72 344.46 4662.48 339.713C4672.24 334.966 4680.68 328.108 4687.8 319.142C4694.92 310.175 4700.46 299.361 4704.41 286.702C4708.63 273.779 4710.74 259.142 4710.74 242.79Z" fill="black"/>
<path d="M4478.39 105.516V379.273H4432.11V105.516H4478.39Z" fill="black"/>
<path d="M4412.62 105.516V145.472H4326.77V379.273H4280.49V145.472H4194.64V105.516H4412.62Z" fill="black"/>
<path d="M3981.51 238.834C3981.51 257.296 3983.75 273.384 3988.23 287.098C3992.98 300.812 3999.05 312.153 4006.43 321.12C4013.81 330.087 4022.12 336.812 4031.35 341.295C4040.85 345.515 4050.47 347.625 4060.23 347.625C4070.25 347.625 4079.22 345.647 4087.13 341.691C4095.31 337.471 4102.43 332.065 4108.5 325.471C4114.82 318.614 4119.97 310.966 4123.92 302.526C4127.88 293.823 4130.78 284.856 4132.63 275.625H4180.1C4177.2 291.186 4172.45 305.691 4165.86 319.142C4159.53 332.592 4151.22 344.328 4140.93 354.35C4130.91 364.372 4119.18 372.284 4105.73 378.086C4092.28 383.888 4077.11 386.79 4060.23 386.79C4041.24 386.79 4023.97 383.493 4008.41 376.9C3992.85 370.042 3979.66 360.284 3968.85 347.625C3958.03 334.966 3949.59 319.537 3943.53 301.339C3937.73 282.878 3934.83 261.911 3934.83 238.439C3934.83 220.505 3937.59 203.098 3943.13 186.219C3948.94 169.34 3957.11 154.439 3967.66 141.516C3978.47 128.33 3991.53 117.78 4006.83 109.868C4022.39 101.956 4040.06 98 4059.84 98C4076.71 98 4091.75 100.505 4104.93 105.516C4118.12 110.264 4129.73 116.989 4139.75 125.692C4149.77 134.132 4158.21 144.285 4165.07 156.154C4171.92 168.022 4177.33 180.945 4181.29 194.923H4133.42C4126.56 175.406 4117.07 160.901 4104.93 151.406C4093.07 141.912 4078.03 137.165 4059.84 137.165C4048.23 137.165 4037.68 139.934 4028.19 145.472C4018.69 151.011 4010.39 158.395 4003.26 167.626C3996.41 176.857 3991 187.67 3987.05 200.065C3983.35 212.461 3981.51 225.384 3981.51 238.834Z" fill="black"/>
<path d="M3906.6 105.516V145.472H3761.02V217.867H3897.9V258.219H3761.02V339.317H3912.93V379.273H3714.74V105.516H3906.6Z" fill="black"/>
<path d="M3564.38 105.516V339.317H3694.53V379.273H3517.7V105.516H3564.38Z" fill="black"/>
<path d="M3367.74 105.516V339.317H3497.89V379.273H3321.06V105.516H3367.74Z" fill="black"/>
<path d="M3286.27 242.79C3286.27 263.889 3283.5 283.274 3277.96 300.944C3272.42 318.35 3264.25 333.383 3253.43 346.042C3242.89 358.702 3229.7 368.592 3213.87 375.713C3198.31 382.57 3180.51 385.998 3160.47 385.998C3140.42 385.998 3122.62 382.57 3107.06 375.713C3091.77 368.592 3078.71 358.702 3067.9 346.042C3057.35 333.383 3049.3 318.35 3043.77 300.944C3038.23 283.274 3035.46 263.889 3035.46 242.79C3035.46 221.692 3038.23 202.439 3043.77 185.032C3049.3 167.362 3057.35 152.197 3067.9 139.538C3078.71 126.879 3091.77 116.989 3107.06 109.868C3122.62 102.747 3140.42 99.1868 3160.47 99.1868C3180.51 99.1868 3198.31 102.747 3213.87 109.868C3229.7 116.989 3242.89 126.879 3253.43 139.538C3264.25 152.197 3272.42 167.362 3277.96 185.032C3283.5 202.439 3286.27 221.692 3286.27 242.79ZM3239.98 242.79C3239.98 226.439 3237.87 211.801 3233.65 198.878C3229.7 185.955 3224.16 175.142 3217.04 166.439C3209.92 157.472 3201.48 150.615 3191.72 145.868C3181.96 141.121 3171.55 138.747 3160.47 138.747C3149.39 138.747 3138.97 141.121 3129.22 145.868C3119.72 150.615 3111.41 157.472 3104.29 166.439C3097.44 175.142 3091.9 185.955 3087.68 198.878C3083.72 211.801 3081.74 226.439 3081.74 242.79C3081.74 259.142 3083.72 273.779 3087.68 286.702C3091.9 299.361 3097.44 310.175 3104.29 319.142C3111.41 328.108 3119.72 334.966 3129.22 339.713C3138.97 344.46 3149.39 346.834 3160.47 346.834C3171.55 346.834 3181.96 344.46 3191.72 339.713C3201.48 334.966 3209.92 328.108 3217.04 319.142C3224.16 310.175 3229.7 299.361 3233.65 286.702C3237.87 273.779 3239.98 259.142 3239.98 242.79Z" fill="black"/>
<path d="M2814.02 238.834C2814.02 257.296 2816.26 273.384 2820.74 287.098C2825.49 300.812 2831.56 312.153 2838.94 321.12C2846.32 330.087 2854.63 336.812 2863.86 341.295C2873.36 345.515 2882.98 347.625 2892.74 347.625C2902.76 347.625 2911.73 345.647 2919.64 341.691C2927.82 337.471 2934.94 332.065 2941.01 325.471C2947.33 318.614 2952.48 310.966 2956.43 302.526C2960.39 293.823 2963.29 284.856 2965.14 275.625H3012.61C3009.71 291.186 3004.96 305.691 2998.37 319.142C2992.04 332.592 2983.73 344.328 2973.44 354.35C2963.42 364.372 2951.69 372.284 2938.24 378.086C2924.79 383.888 2909.62 386.79 2892.74 386.79C2873.75 386.79 2856.48 383.493 2840.92 376.9C2825.36 370.042 2812.17 360.284 2801.36 347.625C2790.54 334.966 2782.1 319.537 2776.04 301.339C2770.24 282.878 2767.34 261.911 2767.34 238.439C2767.34 220.505 2770.1 203.098 2775.64 186.219C2781.45 169.34 2789.62 154.439 2800.17 141.516C2810.98 128.33 2824.04 117.78 2839.34 109.868C2854.9 101.956 2872.57 98 2892.35 98C2909.22 98 2924.26 100.505 2937.44 105.516C2950.63 110.264 2962.24 116.989 2972.26 125.692C2982.28 134.132 2990.72 144.285 2997.58 156.154C3004.43 168.022 3009.84 180.945 3013.8 194.923H2965.93C2959.07 175.406 2949.58 160.901 2937.44 151.406C2925.58 141.912 2910.54 137.165 2892.35 137.165C2880.74 137.165 2870.19 139.934 2860.7 145.472C2851.2 151.011 2842.9 158.395 2835.77 167.626C2828.92 176.857 2823.51 187.67 2819.56 200.065C2815.86 212.461 2814.02 225.384 2814.02 238.834Z" fill="black"/>
<path d="M2536.16 105.516L2635.85 379.273H2587.19L2558.32 299.757H2461.39L2432.91 379.273H2383.85L2484.73 105.516H2536.16ZM2510.05 166.439L2475.63 260.592H2544.07L2510.05 166.439Z" fill="black"/>
<path d="M2370.82 186.615C2370.82 198.219 2368.44 209.428 2363.69 220.241C2358.95 231.054 2351.69 240.416 2341.94 248.328C2351.96 253.867 2358.68 261.647 2362.11 271.669C2365.8 281.427 2367.65 291.449 2367.65 301.735V341.295C2367.65 346.306 2368.84 352.108 2371.21 358.701C2373.85 365.295 2377.15 372.152 2381.1 379.273H2330.86C2326.64 372.679 2324 366.086 2322.95 359.493C2322.16 352.636 2321.76 346.965 2321.76 342.482V301.339C2321.76 297.383 2321.1 293.427 2319.78 289.471C2318.46 285.515 2316.22 281.955 2313.06 278.79C2310.16 275.625 2306.2 273.12 2301.19 271.273C2296.44 269.164 2290.51 268.109 2283.39 268.109H2214.55V379.273H2168.27V105.516H2283.39C2297.63 105.516 2310.16 107.89 2320.97 112.637C2331.78 117.384 2340.88 123.714 2348.27 131.626C2355.65 139.274 2361.19 147.977 2364.88 157.736C2368.84 167.23 2370.82 176.856 2370.82 186.615ZM2214.55 228.944H2283.39C2288.93 228.944 2294.2 227.889 2299.21 225.779C2304.22 223.406 2308.57 220.373 2312.27 216.68C2315.96 212.724 2318.86 208.241 2320.97 203.23C2323.34 197.955 2324.53 192.285 2324.53 186.219C2324.53 174.351 2320.71 164.593 2313.06 156.944C2305.41 149.296 2295.52 145.472 2283.39 145.472H2214.55V228.944Z" fill="black"/>
<path d="M1907.11 105.516H2012.73C2031.2 105.516 2047.81 109.208 2062.58 116.593C2077.61 123.714 2090.4 133.472 2100.95 145.868C2111.5 158.263 2119.55 172.768 2125.08 189.384C2130.89 205.735 2133.79 223.274 2133.79 241.999C2133.79 261.515 2130.75 279.581 2124.69 296.196C2118.89 312.812 2110.58 327.317 2099.77 339.713C2089.22 352.108 2076.43 361.866 2061.39 368.987C2046.62 375.844 2030.4 379.273 2012.73 379.273H1907.11V105.516ZM1953.39 339.317H2001.66C2013.79 339.317 2025 337.207 2035.28 332.987C2045.83 328.504 2054.93 322.174 2062.58 313.998C2070.23 305.559 2076.16 295.405 2080.38 283.537C2084.6 271.405 2086.71 257.691 2086.71 242.394C2086.71 225.779 2084.6 211.406 2080.38 199.274C2076.16 186.878 2070.23 176.724 2062.58 168.812C2054.93 160.9 2045.83 155.098 2035.28 151.406C2025 147.45 2013.79 145.472 2001.66 145.472H1953.39V339.317Z" fill="black"/>
<path d="M1708.52 105.516L1824.82 302.526V105.516H1871.11V379.273H1818.89L1702.19 181.867V379.273H1655.9V105.516H1708.52Z" fill="black"/>
<path d="M1541.75 105.516L1641.44 379.273H1592.78L1563.9 299.757H1466.98L1438.5 379.273H1389.44L1490.32 105.516H1541.75ZM1515.64 166.439L1481.22 260.592H1549.66L1515.64 166.439Z" fill="black"/>
<path d="M1178.68 238.834C1178.68 257.296 1180.92 273.384 1185.41 287.098C1190.15 300.812 1196.22 312.153 1203.6 321.12C1210.99 330.087 1219.3 336.812 1228.53 341.295C1238.02 345.515 1247.65 347.625 1257.41 347.625C1267.43 347.625 1276.39 345.647 1284.31 341.691C1292.48 337.471 1299.6 332.065 1305.67 325.471C1312 318.614 1317.14 310.966 1321.1 302.526C1325.05 293.823 1327.95 284.856 1329.8 275.625H1377.27C1374.37 291.186 1369.63 305.691 1363.03 319.142C1356.7 332.592 1348.39 344.328 1338.11 354.35C1328.09 364.372 1316.35 372.284 1302.9 378.086C1289.45 383.888 1274.28 386.79 1257.41 386.79C1238.42 386.79 1221.14 383.493 1205.58 376.9C1190.02 370.042 1176.83 360.284 1166.02 347.625C1155.21 334.966 1146.77 319.537 1140.7 301.339C1134.9 282.878 1132 261.911 1132 238.439C1132 220.505 1134.77 203.098 1140.31 186.219C1146.11 169.34 1154.29 154.439 1164.83 141.516C1175.65 128.33 1188.7 117.78 1204 109.868C1219.56 101.956 1237.23 98 1257.01 98C1273.89 98 1288.92 100.505 1302.11 105.516C1315.3 110.264 1326.9 116.989 1336.92 125.692C1346.94 134.132 1355.38 144.285 1362.24 156.154C1369.1 168.022 1374.5 180.945 1378.46 194.923H1330.59C1323.74 175.406 1314.24 160.901 1302.11 151.406C1290.24 141.912 1275.21 137.165 1257.01 137.165C1245.41 137.165 1234.86 139.934 1225.36 145.472C1215.87 151.011 1207.56 158.395 1200.44 167.626C1193.58 176.857 1188.18 187.67 1184.22 200.065C1180.53 212.461 1178.68 225.384 1178.68 238.834Z" fill="black"/>
<path d="M1195.79 564.916V694.225C1195.79 699.996 1196.87 705.045 1199.04 709.374C1201.38 713.702 1204.27 717.309 1207.69 720.194C1211.3 723.08 1215.36 725.244 1219.87 726.687C1224.38 727.949 1228.79 728.58 1233.12 728.58C1237.99 728.58 1242.77 727.859 1247.46 726.416C1252.33 724.974 1256.66 722.809 1260.44 719.924C1264.23 717.038 1267.3 713.522 1269.64 709.374C1271.99 705.045 1273.16 699.996 1273.16 694.225V564.916H1294.53V690.978C1294.53 700.356 1292.73 708.652 1289.12 715.866C1285.51 722.9 1280.73 728.851 1274.78 733.72C1269.01 738.59 1262.43 742.197 1255.03 744.541C1247.82 747.066 1240.52 748.328 1233.12 748.328C1226.27 748.328 1219.33 747.066 1212.29 744.541C1205.26 742.197 1198.95 738.59 1193.36 733.72C1187.77 728.851 1183.17 722.9 1179.56 715.866C1176.13 708.652 1174.42 700.356 1174.42 690.978V564.916H1195.79ZM1468.64 564.916L1543.03 708.292H1543.84V564.916H1565.22V744H1539.25L1464.58 600.084H1463.77V744H1442.4V564.916H1468.64ZM1736.78 564.916V744H1715.41V564.916H1736.78ZM1992.96 564.916V584.123H1908.56V642.014H1981.87V661.221H1908.56V744H1886.92V564.916H1992.96ZM2198.17 748.328C2186.81 748.328 2176.53 745.713 2167.33 740.483C2158.32 735.253 2150.56 728.22 2144.07 719.383C2137.76 710.546 2132.89 700.446 2129.46 689.085C2126.03 677.723 2124.32 665.91 2124.32 653.647C2124.32 641.383 2126.03 629.661 2129.46 618.479C2133.07 607.117 2138.03 597.198 2144.34 588.722C2150.83 580.066 2158.59 573.212 2167.6 568.163C2176.8 562.933 2187.08 560.318 2198.44 560.318C2209.81 560.318 2219.99 562.933 2229.01 568.163C2238.21 573.212 2245.96 580.066 2252.28 588.722C2258.77 597.198 2263.73 607.117 2267.16 618.479C2270.76 629.661 2272.57 641.383 2272.57 653.647C2272.57 665.91 2270.76 677.723 2267.16 689.085C2263.73 700.446 2258.77 710.546 2252.28 719.383C2245.96 728.22 2238.21 735.253 2229.01 740.483C2219.81 745.713 2209.53 748.328 2198.17 748.328ZM2198.44 728.58C2206.56 728.58 2213.77 726.777 2220.09 723.17C2226.4 719.383 2231.72 714.243 2236.05 707.75C2240.37 701.078 2243.62 693.142 2245.78 683.945C2248.13 674.747 2249.3 664.648 2249.3 653.647C2249.3 642.646 2248.13 632.636 2245.78 623.619C2243.62 614.602 2240.37 606.847 2236.05 600.354C2231.72 593.862 2226.4 588.902 2220.09 585.476C2213.77 581.869 2206.56 580.066 2198.44 580.066C2190.51 580.066 2183.38 581.869 2177.07 585.476C2170.76 588.902 2165.44 593.862 2161.11 600.354C2156.78 606.847 2153.45 614.602 2151.1 623.619C2148.76 632.636 2147.59 642.646 2147.59 653.647C2147.59 664.648 2148.67 674.747 2150.83 683.945C2153.18 693.142 2156.51 701.078 2160.84 707.75C2165.17 714.243 2170.49 719.383 2176.8 723.17C2183.11 726.777 2190.33 728.58 2198.44 728.58ZM2413.86 564.916H2489.87C2496.01 564.916 2501.6 566.449 2506.65 569.515C2511.7 572.581 2515.93 576.459 2519.36 581.148C2522.97 585.656 2525.76 590.706 2527.75 596.297C2529.73 601.707 2530.72 606.937 2530.72 611.987C2530.72 616.856 2530.09 621.816 2528.83 626.865C2527.57 631.915 2525.85 636.604 2523.69 640.932C2521.53 645.08 2518.91 648.687 2515.84 651.753C2512.78 654.639 2509.44 656.442 2505.84 657.163C2514.49 659.147 2520.26 663.205 2523.15 669.337C2526.03 675.288 2527.48 682.051 2527.48 689.626V723.441C2527.48 728.31 2528.2 732.458 2529.64 735.884C2531.08 739.311 2532.89 742.016 2535.05 744H2510.7C2509.62 742.918 2508.72 741.565 2508 739.942C2507.46 738.319 2507.01 736.606 2506.65 734.802C2506.29 732.819 2506.02 730.925 2505.84 729.121C2505.84 727.138 2505.84 725.424 2505.84 723.982V689.355C2505.84 686.65 2505.38 684.035 2504.48 681.51C2503.58 678.805 2502.14 676.46 2500.15 674.477C2498.35 672.312 2496.01 670.599 2493.12 669.337C2490.24 667.894 2486.72 667.173 2482.57 667.173H2435.23V744H2413.86V564.916ZM2435.23 647.695H2482.03C2485.64 647.695 2488.97 646.703 2492.04 644.72C2495.29 642.736 2497.99 640.211 2500.15 637.145C2502.5 634.079 2504.3 630.562 2505.56 626.595C2507.01 622.627 2507.73 618.75 2507.73 614.962C2507.73 611.356 2507.01 607.749 2505.56 604.142C2504.12 600.354 2502.14 597.018 2499.61 594.133C2497.27 591.067 2494.56 588.632 2491.5 586.828C2488.43 585.025 2485.28 584.123 2482.03 584.123H2435.23V647.695ZM2710.86 564.916L2751.44 714.513H2751.98L2794.99 564.916H2825.29V744H2803.92V598.731H2803.11L2761.18 744H2742.24L2699.77 598.731H2699.23V744H2677.86V564.916H2710.86ZM3187.74 686.109C3187.74 691.519 3188.65 696.84 3190.45 702.07C3192.25 707.3 3194.87 711.898 3198.29 715.866C3201.72 719.834 3205.78 723.08 3210.47 725.605C3215.34 727.949 3220.66 729.121 3226.43 729.121C3231.3 729.121 3235.99 728.49 3240.5 727.228C3245 725.965 3248.88 724.072 3252.13 721.547C3255.55 718.842 3258.26 715.596 3260.24 711.808C3262.23 708.021 3263.22 703.512 3263.22 698.282C3263.22 692.511 3261.78 687.552 3258.89 683.404C3256.19 679.075 3252.67 675.469 3248.34 672.583C3244.19 669.517 3239.59 667.082 3234.54 665.279C3229.49 663.476 3224.71 662.033 3220.21 660.951C3213.89 659.508 3207.76 657.344 3201.81 654.458C3195.86 651.392 3190.54 647.695 3185.85 643.367C3181.34 638.858 3177.64 633.628 3174.76 627.677C3171.87 621.545 3170.43 614.782 3170.43 607.388C3170.43 600.715 3171.96 594.493 3175.03 588.722C3178.1 582.951 3182.15 577.992 3187.2 573.844C3192.25 569.515 3198.02 566.179 3204.52 563.834C3211.01 561.49 3217.68 560.318 3224.53 560.318C3235.54 560.318 3244.55 562.301 3251.59 566.269C3258.8 570.056 3264.48 574.835 3268.63 580.607C3272.78 586.197 3275.66 592.239 3277.29 598.731C3279.09 605.224 3279.99 611.085 3279.99 616.315H3258.62C3258.62 611.085 3257.63 606.216 3255.64 601.707C3253.84 597.198 3251.32 593.321 3248.07 590.075C3245 586.829 3241.4 584.304 3237.25 582.5C3233.28 580.516 3229.04 579.524 3224.53 579.524C3220.39 579.524 3216.33 580.156 3212.36 581.418C3208.57 582.681 3205.15 584.574 3202.08 587.099C3199.02 589.444 3196.49 592.329 3194.51 595.756C3192.7 599.182 3191.8 602.969 3191.8 607.117C3191.8 612.528 3192.97 617.217 3195.32 621.184C3197.84 625.152 3201 628.579 3204.79 631.464C3208.57 634.35 3212.72 636.694 3217.23 638.498C3221.92 640.121 3226.34 641.473 3230.49 642.555C3237.52 644.179 3244.28 646.523 3250.77 649.589C3257.27 652.655 3263.04 656.532 3268.09 661.221C3273.14 665.73 3277.11 671.05 3279.99 677.182C3283.06 683.314 3284.59 690.257 3284.59 698.012C3284.59 706.127 3283.15 713.341 3280.26 719.653C3277.38 725.785 3273.32 731.015 3268.09 735.343C3262.86 739.491 3256.64 742.647 3249.42 744.812C3242.39 747.156 3234.72 748.328 3226.43 748.328C3218.67 748.328 3211.1 746.705 3203.7 743.459C3196.49 740.213 3190.09 735.794 3184.5 730.204C3178.91 724.613 3174.4 718.03 3170.97 710.456C3167.73 702.881 3166.1 694.766 3166.1 686.109H3187.74ZM3451.84 564.916V694.225C3451.84 699.996 3452.93 705.045 3455.09 709.374C3457.44 713.702 3460.32 717.309 3463.75 720.194C3467.35 723.08 3471.41 725.244 3475.92 726.687C3480.43 727.949 3484.85 728.58 3489.18 728.58C3494.05 728.58 3498.82 727.859 3503.51 726.416C3508.38 724.974 3512.71 722.809 3516.5 719.924C3520.29 717.038 3523.35 713.522 3525.7 709.374C3528.04 705.045 3529.21 699.996 3529.21 694.225V564.916H3550.58V690.978C3550.58 700.356 3548.78 708.652 3545.17 715.866C3541.57 722.9 3536.79 728.851 3530.84 733.72C3525.06 738.59 3518.48 742.197 3511.09 744.541C3503.87 747.066 3496.57 748.328 3489.18 748.328C3482.32 748.328 3475.38 747.066 3468.35 744.541C3461.31 742.197 3455 738.59 3449.41 733.72C3443.82 728.851 3439.22 722.9 3435.61 715.866C3432.19 708.652 3430.47 700.356 3430.47 690.978V564.916H3451.84ZM3698.45 564.916H3763.38C3770.41 564.916 3776.81 566.54 3782.59 569.786C3788.54 573.032 3793.5 577.18 3797.46 582.23C3801.61 587.099 3804.77 592.509 3806.93 598.461C3809.28 604.412 3810.45 610.183 3810.45 615.774C3810.45 621.725 3809.28 627.767 3806.93 633.899C3804.77 639.85 3801.61 645.351 3797.46 650.4C3793.5 655.27 3788.54 659.328 3782.59 662.574C3776.81 665.64 3770.41 667.173 3763.38 667.173H3719.83V744H3698.45V564.916ZM3719.83 647.966H3761.21C3764.46 647.966 3767.62 647.064 3770.68 645.261C3773.75 643.277 3776.54 640.752 3779.07 637.686C3781.59 634.62 3783.58 631.194 3785.02 627.406C3786.64 623.439 3787.45 619.561 3787.45 615.774C3787.45 611.987 3786.73 608.199 3785.29 604.412C3783.85 600.625 3781.95 597.289 3779.61 594.403C3777.27 591.337 3774.47 588.902 3771.22 587.099C3767.98 585.115 3764.64 584.123 3761.21 584.123H3719.83V647.966ZM3951.89 564.916H4016.81C4023.84 564.916 4030.25 566.54 4036.02 569.786C4041.97 573.032 4046.93 577.18 4050.9 582.23C4055.04 587.099 4058.2 592.509 4060.36 598.461C4062.71 604.412 4063.88 610.183 4063.88 615.774C4063.88 621.725 4062.71 627.767 4060.36 633.899C4058.2 639.85 4055.04 645.351 4050.9 650.4C4046.93 655.27 4041.97 659.328 4036.02 662.574C4030.25 665.64 4023.84 667.173 4016.81 667.173H3973.26V744H3951.89V564.916ZM3973.26 647.966H4014.65C4017.89 647.966 4021.05 647.064 4024.11 645.261C4027.18 643.277 4029.98 640.752 4032.5 637.686C4035.03 634.62 4037.01 631.194 4038.45 627.406C4040.08 623.439 4040.89 619.561 4040.89 615.774C4040.89 611.987 4040.17 608.199 4038.72 604.412C4037.28 600.625 4035.39 597.289 4033.04 594.403C4030.7 591.337 4027.9 588.902 4024.66 587.099C4021.41 585.115 4018.07 584.123 4014.65 584.123H3973.26V647.966ZM4226.69 564.916V724.793H4304.33V744H4205.32V564.916H4226.69ZM4464.83 564.916V744H4443.46V564.916H4464.83ZM4723.17 564.916V584.123H4636.33V642.014H4718.03V661.221H4636.33V724.793H4726.96V744H4614.96V564.916H4723.17ZM4871.04 564.916H4947.05C4953.18 564.916 4958.78 566.449 4963.83 569.515C4968.87 572.581 4973.11 576.459 4976.54 581.148C4980.15 585.656 4982.94 590.706 4984.93 596.297C4986.91 601.707 4987.9 606.937 4987.9 611.987C4987.9 616.856 4987.27 621.816 4986.01 626.865C4984.75 631.915 4983.03 636.604 4980.87 640.932C4978.7 645.08 4976.09 648.687 4973.02 651.753C4969.96 654.639 4966.62 656.442 4963.01 657.163C4971.67 659.147 4977.44 663.205 4980.33 669.337C4983.21 675.288 4984.66 682.051 4984.66 689.626V723.441C4984.66 728.31 4985.38 732.458 4986.82 735.884C4988.26 739.311 4990.07 742.016 4992.23 744H4967.88C4966.8 742.918 4965.9 741.565 4965.18 739.942C4964.64 738.319 4964.19 736.606 4963.83 734.802C4963.46 732.819 4963.19 730.925 4963.01 729.121C4963.01 727.138 4963.01 725.424 4963.01 723.982V689.355C4963.01 686.65 4962.56 684.035 4961.66 681.51C4960.76 678.805 4959.32 676.46 4957.33 674.477C4955.53 672.312 4953.18 670.599 4950.3 669.337C4947.41 667.894 4943.9 667.173 4939.75 667.173H4892.41V744H4871.04V564.916ZM4892.41 647.695H4939.21C4942.81 647.695 4946.15 646.703 4949.22 644.72C4952.46 642.736 4955.17 640.211 4957.33 637.145C4959.68 634.079 4961.48 630.562 4962.74 626.595C4964.19 622.627 4964.91 618.75 4964.91 614.962C4964.91 611.356 4964.19 607.749 4962.74 604.142C4961.3 600.354 4959.32 597.018 4956.79 594.133C4954.45 591.067 4951.74 588.632 4948.68 586.828C4945.61 585.025 4942.45 584.123 4939.21 584.123H4892.41V647.695Z" fill="#3E3E3E"/>
</svg>
